<svg width="24" height="24" viewBox="0 0 24 24" fill="none" xmlns="http://www.w3.org/2000/svg">
<path d="M13.1555 15.4152C13.2986 14.882 13.8468 14.5653 14.3801 14.7082C14.9135 14.8511 15.2299 15.3994 15.0872 15.9328C14.9442 16.4663 14.396 16.7828 13.8625 16.6398C13.3291 16.4969 13.0126 15.9487 13.1555 15.4152Z" fill="white"/>
<path d="M7.35962 13.8625C7.50256 13.3292 8.05089 13.0127 8.58423 13.1555C9.11768 13.2984 9.43416 13.8466 9.29126 14.3801C9.14832 14.9135 8.60012 15.23 8.06665 15.0871C7.53339 14.944 7.21671 14.3958 7.35962 13.8625Z" fill="white"/>
<path d="M11.0344 11.7414C11.1774 11.2079 11.7256 10.8914 12.259 11.0344C12.7924 11.1774 13.109 11.7256 12.9661 12.259C12.8231 12.7924 12.2748 13.1088 11.7415 12.966C11.208 12.8231 10.8915 12.2749 11.0344 11.7414Z" fill="white"/>
<path d="M14.7083 9.62029C14.8512 9.08686 15.3994 8.77038 15.9329 8.91326C16.4663 9.0562 16.7828 9.60441 16.6399 10.1379C16.4968 10.6711 15.9486 10.9878 15.4153 10.8449C14.882 10.702 14.5655 10.1536 14.7083 9.62029Z" fill="white"/>
<path d="M8.91235 8.06658C9.05544 7.53332 9.60458 7.21664 10.1379 7.35955C10.6712 7.50262 10.9879 8.05177 10.845 8.58514C10.7019 9.11841 10.1527 9.43508 9.61938 9.29217C9.08613 9.14908 8.76944 8.59993 8.91235 8.06658Z" fill="white"/>
<path fill-rule="evenodd" clip-rule="evenodd" d="M5.69653 4.61736C6.05389 3.2837 7.42439 2.49146 8.75806 2.84881L19.3831 5.69647C20.7167 6.05382 21.508 7.42432 21.1506 8.75799L18.304 19.383C17.9466 20.7166 16.576 21.5078 15.2424 21.1506L4.61645 18.3039C3.28312 17.9464 2.49174 16.5758 2.84888 15.2424L5.69653 4.61736ZM8.49927 3.81463C7.69907 3.60022 6.87677 4.07596 6.66235 4.87615L3.8147 15.5012C3.6005 16.3011 4.07538 17.1235 4.87524 17.3381L15.5012 20.1847C16.3013 20.399 17.1237 19.9243 17.3381 19.1242L20.1848 8.4992C20.3992 7.699 19.9245 6.8767 19.1243 6.66229L8.49927 3.81463Z" fill="white"/>
</svg>
