<svg xmlns="http://www.w3.org/2000/svg" width="192" height="192" fill="currentColor" viewBox="0 0 192 192">
  <path d="M168 136c0 13.255 10.745 24 24 24v8c-13.255 0-24 10.745-24 24h-8c0-13.255-10.745-24-24-24v-8c13.255 0 24-10.745 24-24h8Z"/>
  <path fill-rule="evenodd" d="M76 40c28.719 0 52 23.281 52 52v56l-6.858 2.799-8.57-8.751c-4.086-4.173-10.536-4.648-15.893-2.323A51.821 51.821 0 0 1 76 144c-28.719 0-52-23.281-52-52a51.85 51.85 0 0 1 4.205-20.519c2.252-5.238 1.83-11.51-2.16-15.584l-8.903-9.1L20 40h56Zm0 24c-15.464 0-28 12.536-28 28s12.536 28 28 28 28-12.536 28-28-12.536-28-28-28Z" clip-rule="evenodd"/>
</svg>
